<?xml version="1.0" encoding="utf-8"?>
<!-- Generator: Adobe Illustrator 17.0.0, SVG Export Plug-In . SVG Version: 6.00 Build 0)  -->
<!DOCTYPE svg PUBLIC "-//W3C//DTD SVG 1.1//EN" "http://www.w3.org/Graphics/SVG/1.1/DTD/svg11.dtd">
<svg version="1.1" id="Layer_1" xmlns="http://www.w3.org/2000/svg" xmlns:xlink="http://www.w3.org/1999/xlink" x="0px" y="0px"
	 width="820px" height="150px" viewBox="0 0 820 150" enable-background="new 0 0 820 150" xml:space="preserve">
<polygon points="48.091,1 3,149 482.913,149 528,1 "/>
<g>
	<path fill="#FFFFFF" d="M93.708,53.74c-1.393-6.28-4.302-8.152-9.521-8.152c-5.332,0-10.848,4.407-12.631,9.584
		c-1.251,3.635-1.051,6.28,1.48,8.924c1.36,1.211,2.464,2.203,3.457,2.864l4.937,3.084c3.684,2.204,5.414,3.306,8.132,6.06
		c3.892,3.855,5.113,8.372,2.792,16.084c-2.125,6.17-5.945,11.458-11.423,15.755c-6.112,4.848-12.723,7.271-19.83,7.271
		c-6.332,0-11.091-1.982-14.317-5.839c-3.226-3.855-4.369-8.923-3.614-14.983l10.187-5.067
		c-0.606,10.467,1.713,16.636,10.932,16.636c4.553,0,8.489-1.433,12.068-4.406c2.834-2.424,4.895-5.509,6.146-9.145
		c2.313-6.72-1.688-10.576-9.501-14.983c-5.161-2.753-7.552-4.517-10.374-7.932c-2.787-3.525-3.083-7.822-1.109-13.551
		c1.934-5.619,5.414-10.246,10.48-13.991c5.065-3.746,10.154-5.619,15.375-5.619c10.328,0,14.586,4.406,15.966,12.339L93.708,53.74z
		"/>
</g>
<g>
	<path fill="#FFFFFF" d="M170.255,37.214h9.773l-26.554,77.119h-9.773l12.518-36.355h-35.543l-12.518,36.355h-9.773l26.554-77.119
		h9.773l-10.85,31.509h35.543L170.255,37.214z"/>
</g>
<g>
	<path fill="#FFFFFF" d="M195.019,37.214h9.773l-17.753,51.56c-3.49,10.135,0.525,17.186,11.521,17.186
		c10.994,0,19.865-7.051,23.355-17.186l17.753-51.56h9.773l-17.526,50.899c-2.92,8.482-7.789,15.203-14.641,19.939
		c-6.74,4.738-14.017,7.161-21.901,7.161c-7.887,0-13.493-2.423-17.083-7.161c-3.479-4.736-3.719-11.457-0.799-19.939
		L195.019,37.214z"/>
</g>
<g>
	<path fill="#FFFFFF" d="M263.544,37.214h45.205l-3.187,9.255h-35.432l-7.928,23.025h28.768l-3.188,9.254h-28.768l-12.252,35.585
		h-9.773L263.544,37.214z"/>
</g>
<g>
	<path fill="#FFFFFF" d="M322.296,37.214h45.205l-3.187,9.255h-35.432l-7.928,23.025h28.768l-3.188,9.254h-28.768l-12.252,35.585
		h-9.773L322.296,37.214z"/>
</g>
<g>
	<path fill="#FFFFFF" d="M380.716,37.214h9.773l-23.368,67.865h35.32l-3.186,9.254h-45.094L380.716,37.214z"/>
</g>
<g>
	<path fill="#FFFFFF" d="M440.025,37.214h44.65l-3.188,9.255h-34.877l-7.625,22.143h28.213l-3.186,9.255h-28.213l-9.371,27.212
		h35.986l-3.186,9.254h-45.76L440.025,37.214z"/>
</g>
<g>
	<path d="M603.324,35.154h10.369v82.49h-10.369V78.757h-37.711v38.888h-10.369v-82.49h10.369v33.703h37.711V35.154z"/>
	<path d="M658.35,35.154h10.371v55.15c0,10.842,6.834,18.384,18.502,18.384c11.666,0,18.5-7.542,18.5-18.384v-55.15h10.371v54.443
		c0,9.074-2.711,16.263-8.25,21.33c-5.42,5.067-12.256,7.66-20.621,7.66c-8.367,0-15.203-2.593-20.742-7.66
		c-5.42-5.067-8.131-12.256-8.131-21.33V35.154z"/>
	<path d="M760.16,35.154h27.812c14.494,0,23.215,7.896,23.215,21.212c0,7.07-3.771,13.198-9.311,16.145
		c8.131,3.3,13.316,10.724,13.316,20.623c0,15.201-9.662,24.511-25.689,24.511H760.16V35.154z M770.531,45.053v23.687h16.852
		c8.014,0,13.08-4.124,13.08-11.784c0-7.659-5.066-11.902-13.08-11.902H770.531z M770.531,78.639v29.107h17.441
		c10.959,0,16.498-4.832,16.498-14.612c0-9.664-5.539-14.495-16.498-14.495H770.531z"/>
</g>
</svg>
